<mxfile host="app.diagrams.net" modified="2023-08-31T16:03:13.958Z" agent="Mozilla/5.0 (Windows NT 10.0; Win64; x64) AppleWebKit/537.36 (KHTML, like Gecko) Chrome/116.0.0.0 Safari/537.36" etag="l6ySZ064j_qce7d2y2mq" version="21.7.1" type="device">
  <diagram name="Page-1" id="0sABt3NtBiqJK8UlrKt1">
    <mxGraphModel dx="1434" dy="758" grid="1" gridSize="10" guides="1" tooltips="1" connect="1" arrows="1" fold="1" page="1" pageScale="1" pageWidth="1169" pageHeight="827" math="0" shadow="0">
      <root>
        <mxCell id="0" />
        <mxCell id="1" parent="0" />
        <mxCell id="ryF_aBN_pqzcjg0MYY2d-6" style="edgeStyle=orthogonalEdgeStyle;rounded=0;orthogonalLoop=1;jettySize=auto;html=1;exitX=1;exitY=0.5;exitDx=0;exitDy=0;entryX=0;entryY=0.5;entryDx=0;entryDy=0;endArrow=none;endFill=0;" parent="1" source="ryF_aBN_pqzcjg0MYY2d-1" target="ryF_aBN_pqzcjg0MYY2d-2" edge="1">
          <mxGeometry relative="1" as="geometry" />
        </mxCell>
        <mxCell id="ryF_aBN_pqzcjg0MYY2d-1" value="CLIENT" style="rounded=0;whiteSpace=wrap;html=1;" parent="1" vertex="1">
          <mxGeometry x="80" y="170" width="120" height="60" as="geometry" />
        </mxCell>
        <mxCell id="ryF_aBN_pqzcjg0MYY2d-7" style="shape=connector;rounded=0;orthogonalLoop=1;jettySize=auto;html=1;entryX=0;entryY=0.5;entryDx=0;entryDy=0;labelBackgroundColor=default;strokeColor=default;fontFamily=Helvetica;fontSize=11;fontColor=default;endArrow=none;endFill=0;exitX=1;exitY=0.25;exitDx=0;exitDy=0;" parent="1" source="ryF_aBN_pqzcjg0MYY2d-2" target="ryF_aBN_pqzcjg0MYY2d-3" edge="1">
          <mxGeometry relative="1" as="geometry" />
        </mxCell>
        <mxCell id="ZemNos1rImD5YYOrALBd-12" style="edgeStyle=none;shape=connector;rounded=0;orthogonalLoop=1;jettySize=auto;html=1;exitX=0.5;exitY=1;exitDx=0;exitDy=0;labelBackgroundColor=default;strokeColor=default;fontFamily=Helvetica;fontSize=11;fontColor=default;endArrow=none;endFill=0;" edge="1" parent="1" source="ryF_aBN_pqzcjg0MYY2d-2">
          <mxGeometry relative="1" as="geometry">
            <mxPoint x="499.9999999999998" y="330" as="targetPoint" />
          </mxGeometry>
        </mxCell>
        <mxCell id="ryF_aBN_pqzcjg0MYY2d-2" value="COMANDĂ" style="rounded=0;whiteSpace=wrap;html=1;" parent="1" vertex="1">
          <mxGeometry x="360" y="170" width="120" height="60" as="geometry" />
        </mxCell>
        <mxCell id="ZemNos1rImD5YYOrALBd-2" style="edgeStyle=none;shape=connector;rounded=0;orthogonalLoop=1;jettySize=auto;html=1;exitX=1;exitY=0.5;exitDx=0;exitDy=0;entryX=0;entryY=0.25;entryDx=0;entryDy=0;labelBackgroundColor=default;strokeColor=default;fontFamily=Helvetica;fontSize=11;fontColor=default;endArrow=none;endFill=0;" edge="1" parent="1" source="ryF_aBN_pqzcjg0MYY2d-3">
          <mxGeometry relative="1" as="geometry">
            <mxPoint x="919.9999999999998" y="181" as="targetPoint" />
          </mxGeometry>
        </mxCell>
        <mxCell id="ryF_aBN_pqzcjg0MYY2d-3" value="FUNCȚIONAR" style="whiteSpace=wrap;html=1;" parent="1" vertex="1">
          <mxGeometry x="640" y="70" width="120" height="60" as="geometry" />
        </mxCell>
        <mxCell id="ZemNos1rImD5YYOrALBd-3" style="edgeStyle=none;shape=connector;rounded=0;orthogonalLoop=1;jettySize=auto;html=1;exitX=1;exitY=0.5;exitDx=0;exitDy=0;entryX=0;entryY=0.75;entryDx=0;entryDy=0;labelBackgroundColor=default;strokeColor=default;fontFamily=Helvetica;fontSize=11;fontColor=default;endArrow=none;endFill=0;" edge="1" parent="1" source="ryF_aBN_pqzcjg0MYY2d-4">
          <mxGeometry relative="1" as="geometry">
            <mxPoint x="919.9999999999998" y="211" as="targetPoint" />
          </mxGeometry>
        </mxCell>
        <mxCell id="ZemNos1rImD5YYOrALBd-13" style="edgeStyle=none;shape=connector;rounded=0;orthogonalLoop=1;jettySize=auto;html=1;labelBackgroundColor=default;strokeColor=default;fontFamily=Helvetica;fontSize=11;fontColor=default;endArrow=none;endFill=0;" edge="1" parent="1" source="ryF_aBN_pqzcjg0MYY2d-4">
          <mxGeometry relative="1" as="geometry">
            <mxPoint x="499.9999999999998" y="330" as="targetPoint" />
          </mxGeometry>
        </mxCell>
        <mxCell id="ryF_aBN_pqzcjg0MYY2d-4" value="CURIER" style="whiteSpace=wrap;html=1;" parent="1" vertex="1">
          <mxGeometry x="660" y="270" width="120" height="60" as="geometry" />
        </mxCell>
        <mxCell id="ZemNos1rImD5YYOrALBd-14" style="edgeStyle=none;shape=connector;rounded=0;orthogonalLoop=1;jettySize=auto;html=1;labelBackgroundColor=default;strokeColor=default;fontFamily=Helvetica;fontSize=11;fontColor=default;endArrow=none;endFill=0;" edge="1" parent="1" source="ryF_aBN_pqzcjg0MYY2d-5">
          <mxGeometry relative="1" as="geometry">
            <mxPoint x="499.9999999999998" y="330" as="targetPoint" />
          </mxGeometry>
        </mxCell>
        <mxCell id="ryF_aBN_pqzcjg0MYY2d-5" value="AUTOVEHICUL" style="whiteSpace=wrap;html=1;" parent="1" vertex="1">
          <mxGeometry x="360" y="480" width="120" height="60" as="geometry" />
        </mxCell>
        <mxCell id="ryF_aBN_pqzcjg0MYY2d-13" value="&lt;font style=&quot;font-size: 13px;&quot;&gt;1&lt;/font&gt;" style="text;html=1;align=center;verticalAlign=middle;resizable=0;points=[];autosize=1;strokeColor=none;fillColor=none;fontSize=11;fontFamily=Helvetica;fontColor=default;rotation=-25;" parent="1" vertex="1">
          <mxGeometry x="615" y="79" width="30" height="30" as="geometry" />
        </mxCell>
        <mxCell id="ryF_aBN_pqzcjg0MYY2d-14" value="&lt;font style=&quot;font-size: 13px;&quot;&gt;M(1)&lt;/font&gt;" style="text;html=1;align=center;verticalAlign=middle;resizable=0;points=[];autosize=1;strokeColor=none;fillColor=none;fontSize=11;fontFamily=Helvetica;fontColor=default;" parent="1" vertex="1">
          <mxGeometry x="319" y="170" width="50" height="30" as="geometry" />
        </mxCell>
        <mxCell id="ryF_aBN_pqzcjg0MYY2d-15" value="&lt;font style=&quot;font-size: 13px;&quot;&gt;1&lt;/font&gt;" style="text;html=1;align=center;verticalAlign=middle;resizable=0;points=[];autosize=1;strokeColor=none;fillColor=none;fontSize=11;fontFamily=Helvetica;fontColor=default;" parent="1" vertex="1">
          <mxGeometry x="193" y="174" width="30" height="30" as="geometry" />
        </mxCell>
        <mxCell id="ryF_aBN_pqzcjg0MYY2d-19" value="&lt;font style=&quot;font-size: 14px;&quot;&gt;M(0)&lt;/font&gt;" style="text;html=1;align=center;verticalAlign=middle;resizable=0;points=[];autosize=1;strokeColor=none;fillColor=none;fontSize=11;fontFamily=Helvetica;fontColor=default;rotation=-30;" parent="1" vertex="1">
          <mxGeometry x="472" y="147" width="50" height="30" as="geometry" />
        </mxCell>
        <mxCell id="7k0OPDWXXvQ4jLd5zXHH-1" value="&lt;font style=&quot;font-size: 13px;&quot;&gt;transmite&lt;/font&gt;" style="text;html=1;align=center;verticalAlign=middle;resizable=0;points=[];autosize=1;strokeColor=none;fillColor=none;fontSize=11;fontFamily=Helvetica;fontColor=default;" parent="1" vertex="1">
          <mxGeometry x="236" y="173" width="80" height="30" as="geometry" />
        </mxCell>
        <mxCell id="7k0OPDWXXvQ4jLd5zXHH-3" value="&lt;font style=&quot;font-size: 13px;&quot;&gt;preia&lt;/font&gt;" style="text;html=1;align=center;verticalAlign=middle;resizable=0;points=[];autosize=1;strokeColor=none;fillColor=none;fontSize=11;fontFamily=Helvetica;fontColor=default;rotation=-30;" parent="1" vertex="1">
          <mxGeometry x="539" y="111" width="50" height="30" as="geometry" />
        </mxCell>
        <mxCell id="ZemNos1rImD5YYOrALBd-4" value="&lt;font style=&quot;font-size: 13px;&quot;&gt;IS-A&lt;/font&gt;" style="text;html=1;align=center;verticalAlign=middle;resizable=0;points=[];autosize=1;strokeColor=none;fillColor=none;fontSize=11;fontFamily=Helvetica;fontColor=default;rotation=30;" vertex="1" parent="1">
          <mxGeometry x="820" y="117" width="50" height="30" as="geometry" />
        </mxCell>
        <mxCell id="ZemNos1rImD5YYOrALBd-7" value="&lt;font style=&quot;font-size: 13px;&quot;&gt;IS-A&lt;/font&gt;" style="text;html=1;align=center;verticalAlign=middle;resizable=0;points=[];autosize=1;strokeColor=none;fillColor=none;fontSize=11;fontFamily=Helvetica;fontColor=default;rotation=-30;" vertex="1" parent="1">
          <mxGeometry x="826" y="250" width="50" height="30" as="geometry" />
        </mxCell>
        <mxCell id="ZemNos1rImD5YYOrALBd-8" value="&lt;font style=&quot;font-size: 13px;&quot;&gt;1&lt;/font&gt;" style="text;html=1;align=center;verticalAlign=middle;resizable=0;points=[];autosize=1;strokeColor=none;fillColor=none;fontSize=11;fontFamily=Helvetica;fontColor=default;rotation=30;" vertex="1" parent="1">
          <mxGeometry x="897" y="147" width="30" height="30" as="geometry" />
        </mxCell>
        <mxCell id="ZemNos1rImD5YYOrALBd-9" value="&lt;font style=&quot;font-size: 13px;&quot;&gt;1&lt;/font&gt;" style="text;html=1;align=center;verticalAlign=middle;resizable=0;points=[];autosize=1;strokeColor=none;fillColor=none;fontSize=11;fontFamily=Helvetica;fontColor=default;rotation=-20;" vertex="1" parent="1">
          <mxGeometry x="894" y="188" width="30" height="30" as="geometry" />
        </mxCell>
        <mxCell id="ZemNos1rImD5YYOrALBd-10" value="&lt;font style=&quot;font-size: 13px;&quot;&gt;1(0)&lt;/font&gt;" style="text;html=1;align=center;verticalAlign=middle;resizable=0;points=[];autosize=1;strokeColor=none;fillColor=none;fontSize=11;fontFamily=Helvetica;fontColor=default;rotation=-35;" vertex="1" parent="1">
          <mxGeometry x="770" y="264" width="50" height="30" as="geometry" />
        </mxCell>
        <mxCell id="ZemNos1rImD5YYOrALBd-11" value="&lt;font style=&quot;font-size: 13px;&quot;&gt;1(0)&lt;/font&gt;" style="text;html=1;align=center;verticalAlign=middle;resizable=0;points=[];autosize=1;strokeColor=none;fillColor=none;fontSize=11;fontFamily=Helvetica;fontColor=default;rotation=30;" vertex="1" parent="1">
          <mxGeometry x="760" y="83" width="50" height="30" as="geometry" />
        </mxCell>
        <mxCell id="ZemNos1rImD5YYOrALBd-15" value="livrarea unei comenzi" style="text;html=1;align=center;verticalAlign=middle;resizable=0;points=[];autosize=1;strokeColor=none;fillColor=none;fontSize=11;fontFamily=Helvetica;fontColor=default;" vertex="1" parent="1">
          <mxGeometry x="472" y="285" width="130" height="30" as="geometry" />
        </mxCell>
        <mxCell id="ZemNos1rImD5YYOrALBd-16" value="M(0)" style="text;html=1;align=center;verticalAlign=middle;resizable=0;points=[];autosize=1;strokeColor=none;fillColor=none;fontSize=11;fontFamily=Helvetica;fontColor=default;" vertex="1" parent="1">
          <mxGeometry x="618" y="285" width="50" height="30" as="geometry" />
        </mxCell>
        <mxCell id="ZemNos1rImD5YYOrALBd-17" value="1" style="text;html=1;align=center;verticalAlign=middle;resizable=0;points=[];autosize=1;strokeColor=none;fillColor=none;fontSize=11;fontFamily=Helvetica;fontColor=default;" vertex="1" parent="1">
          <mxGeometry x="430" y="226" width="30" height="30" as="geometry" />
        </mxCell>
        <mxCell id="ZemNos1rImD5YYOrALBd-18" value="M(1)" style="text;html=1;align=center;verticalAlign=middle;resizable=0;points=[];autosize=1;strokeColor=none;fillColor=none;fontSize=11;fontFamily=Helvetica;fontColor=default;" vertex="1" parent="1">
          <mxGeometry x="395" y="456" width="50" height="30" as="geometry" />
        </mxCell>
        <mxCell id="ZemNos1rImD5YYOrALBd-19" value="ANGAJAT" style="rounded=0;whiteSpace=wrap;html=1;fontFamily=Helvetica;fontSize=11;fontColor=default;fillColor=default;gradientColor=none;" vertex="1" parent="1">
          <mxGeometry x="920" y="167" width="120" height="60" as="geometry" />
        </mxCell>
      </root>
    </mxGraphModel>
  </diagram>
</mxfile>
